<mxfile host="app.diagrams.net" modified="2022-07-09T05:48:16.747Z" agent="5.0 (Windows NT 10.0; WOW64) AppleWebKit/537.36 (KHTML, like Gecko) Chrome/78.0.3904.108 Safari/537.36" etag="WPMhcX47ByQ3Gp_808JH" version="19.0.3" type="github">
  <diagram id="pX38wxu9b0TiyVF56Ika" name="Page-1">
    <mxGraphModel dx="1422" dy="762" grid="1" gridSize="10" guides="1" tooltips="1" connect="1" arrows="1" fold="1" page="1" pageScale="1" pageWidth="827" pageHeight="1169" math="0" shadow="0">
      <root>
        <mxCell id="0" />
        <mxCell id="1" parent="0" />
        <mxCell id="rPTRZoUz97EC7ee6B187-4" style="edgeStyle=orthogonalEdgeStyle;rounded=0;orthogonalLoop=1;jettySize=auto;html=1;" edge="1" parent="1" source="rPTRZoUz97EC7ee6B187-1" target="rPTRZoUz97EC7ee6B187-2">
          <mxGeometry relative="1" as="geometry" />
        </mxCell>
        <mxCell id="rPTRZoUz97EC7ee6B187-5" style="edgeStyle=orthogonalEdgeStyle;rounded=0;orthogonalLoop=1;jettySize=auto;html=1;" edge="1" parent="1" source="rPTRZoUz97EC7ee6B187-1" target="rPTRZoUz97EC7ee6B187-3">
          <mxGeometry relative="1" as="geometry" />
        </mxCell>
        <mxCell id="rPTRZoUz97EC7ee6B187-10" style="edgeStyle=orthogonalEdgeStyle;rounded=0;orthogonalLoop=1;jettySize=auto;html=1;" edge="1" parent="1" source="rPTRZoUz97EC7ee6B187-1" target="rPTRZoUz97EC7ee6B187-6">
          <mxGeometry relative="1" as="geometry" />
        </mxCell>
        <mxCell id="rPTRZoUz97EC7ee6B187-1" value="A&lt;br&gt;核对后，大额行号与合同不一致的列表" style="rounded=1;whiteSpace=wrap;html=1;" vertex="1" parent="1">
          <mxGeometry x="340" y="140" width="120" height="60" as="geometry" />
        </mxCell>
        <mxCell id="rPTRZoUz97EC7ee6B187-2" value="对比认购变更后重叠记录，将变更后行号更新到A结果集中" style="rounded=1;whiteSpace=wrap;html=1;" vertex="1" parent="1">
          <mxGeometry x="110" y="140" width="120" height="60" as="geometry" />
        </mxCell>
        <mxCell id="rPTRZoUz97EC7ee6B187-3" value="对比维护后重叠记录，将维护后行号更新到A结果集中" style="rounded=1;whiteSpace=wrap;html=1;" vertex="1" parent="1">
          <mxGeometry x="600" y="140" width="120" height="60" as="geometry" />
        </mxCell>
        <mxCell id="rPTRZoUz97EC7ee6B187-12" style="edgeStyle=orthogonalEdgeStyle;rounded=0;orthogonalLoop=1;jettySize=auto;html=1;" edge="1" parent="1" source="rPTRZoUz97EC7ee6B187-6" target="rPTRZoUz97EC7ee6B187-11">
          <mxGeometry relative="1" as="geometry" />
        </mxCell>
        <mxCell id="rPTRZoUz97EC7ee6B187-6" value="备份生产订单数据" style="rounded=1;whiteSpace=wrap;html=1;" vertex="1" parent="1">
          <mxGeometry x="340" y="260" width="120" height="60" as="geometry" />
        </mxCell>
        <mxCell id="rPTRZoUz97EC7ee6B187-14" style="edgeStyle=orthogonalEdgeStyle;rounded=0;orthogonalLoop=1;jettySize=auto;html=1;" edge="1" parent="1" source="rPTRZoUz97EC7ee6B187-11" target="rPTRZoUz97EC7ee6B187-13">
          <mxGeometry relative="1" as="geometry" />
        </mxCell>
        <mxCell id="rPTRZoUz97EC7ee6B187-11" value="将结果集A中的记录更新至生产库" style="rounded=1;whiteSpace=wrap;html=1;" vertex="1" parent="1">
          <mxGeometry x="340" y="390" width="120" height="60" as="geometry" />
        </mxCell>
        <mxCell id="rPTRZoUz97EC7ee6B187-13" value="到生产复核" style="rounded=1;whiteSpace=wrap;html=1;" vertex="1" parent="1">
          <mxGeometry x="340" y="520" width="120" height="60" as="geometry" />
        </mxCell>
      </root>
    </mxGraphModel>
  </diagram>
</mxfile>
